<svg width="32" height="32" viewBox="0 0 32 32" fill="none" xmlns="http://www.w3.org/2000/svg">
<path d="M0 4C0 1.79086 1.79086 0 4 0H28C30.2091 0 32 1.79086 32 4V28C32 30.2091 30.2091 32 28 32H4C1.79086 32 0 30.2091 0 28V4Z" fill="#0719B3"/>
<path d="M12.0863 4.42176C11.7342 4.48045 11.3685 4.72422 11.1609 5.03571C10.8765 5.46908 10.8674 5.54582 10.8674 8.16864V10.5296H10.1587C9.76594 10.5296 9.30548 10.5522 9.13845 10.5748C8.58319 10.656 8.12273 10.972 7.90153 11.4235L7.77513 11.6808L7.76159 15.1207L7.74805 18.5606L7.87445 18.5922C8.08662 18.6418 8.26268 18.7457 8.45228 18.9308L8.63285 19.1023L10.9351 19.2197L13.2374 19.3416L13.3006 19.2332C13.6031 18.7592 14.1629 18.5741 14.6369 18.7953C15.0025 18.9669 15.2057 19.3009 15.2057 19.7343C15.2057 19.96 15.3095 20.2218 16.2756 22.4925C16.8624 23.8694 17.3545 25.0025 17.3726 25.0115C17.3951 25.0206 17.4764 25.0702 17.5531 25.1244C18.1535 25.5307 17.8827 26.4606 17.1604 26.4697H16.9392L16.5329 26.9933C16.3117 27.2822 16.1176 27.535 16.1131 27.5576C16.104 27.5802 17.6524 27.5892 19.5891 27.5847L23.0786 27.5711L23.336 27.4493C23.679 27.2913 23.977 27.0069 24.126 26.6954L24.2524 26.4426V19.0617V11.6808L24.1576 11.4776C23.9318 11.0036 23.4669 10.6651 22.9206 10.5793C22.7581 10.5522 22.239 10.5296 21.7605 10.5296H20.8937L20.8802 8.05578L20.8666 5.58645L20.7222 5.28399C20.5551 4.93188 20.3159 4.67908 20.0089 4.52559L19.7832 4.41273L15.9912 4.40822C13.9056 4.4037 12.1495 4.40822 12.0863 4.42176ZM19.6884 5.61354L19.8058 5.75348V8.14155V10.5296H19.1286H18.4515V11.7214C18.4515 12.376 18.4379 12.9493 18.4244 12.9899C18.3928 13.0712 18.1761 13.1931 18.0587 13.1931C18.0181 13.1931 17.3861 12.5972 16.6458 11.8613L15.314 10.5296H13.6302H11.9509V8.14155V5.75348L12.0682 5.61354L12.1856 5.47359H15.8783H19.571L19.6884 5.61354Z" fill="white"/>
<path d="M8.81344 20.0186C8.79538 20.0999 8.71864 20.2805 8.6419 20.4249L8.50195 20.6777L9.50864 22.7724C10.0594 23.919 10.5244 24.8851 10.5424 24.9122C10.5605 24.9392 10.7185 24.9754 10.8945 24.9889L11.2151 25.016L12.3843 22.7724L13.558 20.5288L13.4045 20.3256C13.3187 20.2128 13.2465 20.118 13.2375 20.1089C13.233 20.0999 9.44996 19.8968 8.84955 19.8742C8.84504 19.8742 8.8315 19.9419 8.81344 20.0186Z" fill="white"/>
<path d="M14.4609 20.7048L14.2849 20.7545L13.057 23.1019L11.8291 25.4494L11.8968 25.5938C11.9374 25.6751 11.9781 25.7428 11.9961 25.7428C12.1316 25.7428 16.5736 25.2462 16.5872 25.2282C16.6143 25.2011 16.6233 25.2282 15.4992 22.5828C15.0613 21.5535 14.6867 20.6958 14.6686 20.6823C14.6505 20.6642 14.5603 20.6777 14.4609 20.7048Z" fill="white"/>
<path d="M7.75244 23.2057V25.4087L8.66885 25.5847C9.16993 25.6795 9.60782 25.7653 9.63491 25.7743C9.66651 25.7879 9.70714 25.7608 9.72519 25.7156C9.73874 25.666 9.79291 25.5757 9.83805 25.508L9.92382 25.3816L8.8765 23.1921C8.29867 21.9868 7.81113 21.0027 7.78856 21.0027C7.7705 21.0027 7.75244 21.9959 7.75244 23.2057Z" fill="white"/>
<path d="M14.0049 26.289C12.9395 26.4064 12.0502 26.5057 12.0367 26.5057C12.0186 26.5102 11.9915 26.5644 11.9735 26.6321C11.9328 26.7991 11.7071 27.1016 11.5446 27.2099C11.4408 27.2776 11.4092 27.3363 11.4092 27.4447V27.5936L13.2736 27.5891H15.1335L15.6978 26.8623C16.0093 26.4605 16.2711 26.1174 16.2756 26.0949C16.3027 26.0362 16.0634 26.0588 14.0049 26.289Z" fill="white"/>
<path d="M7.77936 26.3386C7.86062 26.79 8.22176 27.2324 8.69125 27.4491C8.93502 27.5665 8.98919 27.571 9.79726 27.5846C10.5963 27.6026 10.6414 27.5981 10.6414 27.5168C10.6414 27.4582 10.5782 27.413 10.4112 27.3543C10.1403 27.255 9.81983 26.9571 9.73406 26.7178C9.69794 26.6185 9.63925 26.5418 9.58057 26.5327C9.4316 26.4966 7.8245 26.1942 7.78839 26.1942C7.77033 26.1942 7.76582 26.2619 7.77936 26.3386Z" fill="white"/>
</svg>
