<svg width="94" height="40" viewBox="0 0 94 40" fill="none" xmlns="http://www.w3.org/2000/svg">
<g clip-path="url(#clip0_4_2027)">
<path d="M0 8C0 5.79086 1.79086 4 4 4H28C30.2091 4 32 5.79086 32 8V32C32 34.2091 30.2091 36 28 36H4C1.79086 36 0 34.2091 0 32V8Z" fill="#0719B3"/>
<path d="M12.0863 8.42169C11.7342 8.48038 11.3685 8.72415 11.1609 9.03564C10.8765 9.46901 10.8674 9.54575 10.8674 12.1686V14.5296H10.1587C9.76594 14.5296 9.30548 14.5521 9.13845 14.5747C8.58319 14.656 8.12273 14.972 7.90153 15.4234L7.77513 15.6807L7.76159 19.1206L7.74805 22.5605L7.87445 22.5921C8.08662 22.6418 8.26268 22.7456 8.45228 22.9307L8.63285 23.1022L10.9351 23.2196L13.2374 23.3415L13.3006 23.2331C13.6031 22.7591 14.1629 22.5741 14.6369 22.7953C15.0025 22.9668 15.2057 23.3009 15.2057 23.7342C15.2057 23.9599 15.3095 24.2218 16.2756 26.4925C16.8624 27.8693 17.3545 29.0024 17.3726 29.0115C17.3951 29.0205 17.4764 29.0701 17.5531 29.1243C18.1535 29.5306 17.8827 30.4606 17.1604 30.4696H16.9392L16.5329 30.9932C16.3117 31.2822 16.1176 31.535 16.1131 31.5575C16.104 31.5801 17.6524 31.5891 19.5891 31.5846L23.0786 31.5711L23.336 31.4492C23.679 31.2912 23.977 31.0068 24.126 30.6953L24.2524 30.4425V23.0616V15.6807L24.1576 15.4776C23.9318 15.0036 23.4669 14.665 22.9206 14.5792C22.7581 14.5521 22.239 14.5296 21.7605 14.5296H20.8937L20.8802 12.0557L20.8666 9.58638L20.7222 9.28392C20.5551 8.93181 20.3159 8.67901 20.0089 8.52552L19.7832 8.41266L15.9912 8.40815C13.9056 8.40363 12.1495 8.40815 12.0863 8.42169ZM19.6884 9.61347L19.8058 9.75341V12.1415V14.5296H19.1286H18.4515V15.7213C18.4515 16.3759 18.4379 16.9492 18.4244 16.9899C18.3928 17.0711 18.1761 17.193 18.0587 17.193C18.0181 17.193 17.3861 16.5971 16.6458 15.8613L15.314 14.5296H13.6302H11.9509V12.1415V9.75341L12.0682 9.61347L12.1856 9.47353H15.8783H19.571L19.6884 9.61347Z" fill="white"/>
<path d="M8.81344 24.0186C8.79538 24.0998 8.71864 24.2804 8.6419 24.4249L8.50195 24.6777L9.50864 26.7723C10.0594 27.9189 10.5244 28.885 10.5424 28.9121C10.5605 28.9392 10.7185 28.9753 10.8945 28.9888L11.2151 29.0159L12.3843 26.7723L13.558 24.5287L13.4045 24.3256C13.3187 24.2127 13.2465 24.1179 13.2375 24.1089C13.233 24.0998 9.44996 23.8967 8.84955 23.8741C8.84504 23.8741 8.8315 23.9418 8.81344 24.0186Z" fill="white"/>
<path d="M14.4609 24.7048L14.2849 24.7544L13.057 27.1019L11.8291 29.4493L11.8968 29.5938C11.9374 29.675 11.9781 29.7427 11.9961 29.7427C12.1316 29.7427 16.5736 29.2462 16.5872 29.2281C16.6143 29.201 16.6233 29.2281 15.4992 26.5827C15.0613 25.5535 14.6867 24.6957 14.6686 24.6822C14.6505 24.6641 14.5603 24.6777 14.4609 24.7048Z" fill="white"/>
<path d="M7.75244 27.2057V29.4087L8.66885 29.5847C9.16993 29.6795 9.60782 29.7653 9.63491 29.7743C9.66651 29.7879 9.70714 29.7608 9.72519 29.7156C9.73874 29.666 9.79291 29.5757 9.83805 29.508L9.92382 29.3816L8.8765 27.1921C8.29867 25.9868 7.81113 25.0027 7.78856 25.0027C7.7705 25.0027 7.75244 25.9959 7.75244 27.2057Z" fill="white"/>
<path d="M14.0049 30.289C12.9395 30.4063 12.0502 30.5056 12.0367 30.5056C12.0186 30.5102 11.9915 30.5643 11.9735 30.632C11.9328 30.7991 11.7071 31.1015 11.5446 31.2099C11.4408 31.2776 11.4092 31.3363 11.4092 31.4446V31.5936L13.2736 31.5891H15.1335L15.6978 30.8623C16.0093 30.4605 16.2711 30.1174 16.2756 30.0948C16.3027 30.0362 16.0634 30.0587 14.0049 30.289Z" fill="white"/>
<path d="M7.77936 30.3386C7.86062 30.7901 8.22176 31.2325 8.69125 31.4491C8.93502 31.5665 8.98919 31.571 9.79726 31.5846C10.5963 31.6026 10.6414 31.5981 10.6414 31.5169C10.6414 31.4582 10.5782 31.413 10.4112 31.3543C10.1403 31.255 9.81983 30.9571 9.73406 30.7178C9.69794 30.6185 9.63925 30.5418 9.58057 30.5327C9.4316 30.4966 7.8245 30.1942 7.78839 30.1942C7.77033 30.1942 7.76582 30.2619 7.77936 30.3386Z" fill="white"/>
<path d="M50.0134 28V13.36H44.7574V11.2H57.6454V13.36H52.3894V28H50.0134ZM58.3785 28V11.2H68.4825V13.36H60.7305V18.352H67.7145V20.464H60.7305V25.84H68.5305V28H58.3785ZM76.3022 28.288C75.4062 28.288 74.5902 28.184 73.8542 27.976C73.1342 27.768 72.5022 27.488 71.9582 27.136C71.4302 26.768 70.9902 26.36 70.6382 25.912C70.2862 25.464 70.0382 24.992 69.8942 24.496L72.1742 23.752C72.4142 24.408 72.8702 24.976 73.5422 25.456C74.2142 25.936 75.0382 26.184 76.0142 26.2C77.1982 26.2 78.1262 25.968 78.7982 25.504C79.4862 25.024 79.8302 24.392 79.8302 23.608C79.8302 22.888 79.5342 22.304 78.9422 21.856C78.3502 21.392 77.5662 21.04 76.5902 20.8L74.6462 20.296C73.8782 20.088 73.1742 19.792 72.5342 19.408C71.9102 19.024 71.4142 18.536 71.0462 17.944C70.6782 17.352 70.4942 16.64 70.4942 15.808C70.4942 14.272 70.9902 13.072 71.9822 12.208C72.9902 11.344 74.4382 10.912 76.3262 10.912C77.4142 10.912 78.3582 11.088 79.1582 11.44C79.9582 11.776 80.6142 12.224 81.1262 12.784C81.6542 13.344 82.0302 13.96 82.2542 14.632L79.9742 15.4C79.7022 14.68 79.2382 14.104 78.5822 13.672C77.9262 13.224 77.1182 13 76.1582 13C75.1502 13 74.3502 13.24 73.7582 13.72C73.1822 14.2 72.8942 14.856 72.8942 15.688C72.8942 16.392 73.1182 16.936 73.5662 17.32C74.0302 17.688 74.6462 17.968 75.4142 18.16L77.3582 18.64C78.9262 19.024 80.1342 19.664 80.9822 20.56C81.8462 21.44 82.2782 22.408 82.2782 23.464C82.2782 24.376 82.0462 25.2 81.5822 25.936C81.1342 26.656 80.4622 27.232 79.5662 27.664C78.6862 28.08 77.5982 28.288 76.3022 28.288ZM87.3015 28V13.36H82.0455V11.2H94.9335V13.36H89.6775V28H87.3015Z" fill="#1D1F1E"/>
</g>
<defs>
<clipPath id="clip0_4_2027">
<rect width="94" height="40" fill="white"/>
</clipPath>
</defs>
</svg>
