<svg width="16" height="17" viewBox="0 0 16 17" fill="none" xmlns="http://www.w3.org/2000/svg">
<path d="M14.4925 11.4425C14.3811 12.2894 13.9651 13.0668 13.3224 13.6294C12.6797 14.1921 11.8542 14.5015 11 14.5C6.03751 14.5 2.00001 10.4625 2.00001 5.5C1.99847 4.6458 2.30794 3.82026 2.87059 3.17756C3.43324 2.53485 4.21061 2.11894 5.05751 2.0075C5.27166 1.98135 5.48854 2.02516 5.67575 2.13239C5.86296 2.23963 6.01047 2.40454 6.09626 2.6025L7.41626 5.54937V5.55687C7.48194 5.7084 7.50906 5.87385 7.49521 6.03842C7.48136 6.20299 7.42696 6.36157 7.33688 6.5C7.32563 6.51687 7.31376 6.5325 7.30126 6.54812L6.00001 8.09062C6.46813 9.04187 7.46313 10.0281 8.42688 10.4975L9.94813 9.20312C9.96307 9.19056 9.97872 9.17888 9.99501 9.16812C10.1333 9.07587 10.2924 9.01956 10.458 9.00428C10.6235 8.98901 10.7903 9.01524 10.9431 9.08062L10.9513 9.08437L13.8956 10.4037C14.0939 10.4892 14.2592 10.6366 14.3668 10.8238C14.4744 11.0111 14.5185 11.2281 14.4925 11.4425Z" fill="#C2C2C2"/>
</svg>
